<svg xmlns="http://www.w3.org/2000/svg" width="180" height="180" viewBox="0 0 180 180" fill="none">
  <rect width="180" height="180" fill="#863bff" rx="20"/>
  <!-- Simple shark shape -->
  <path d="M30 105 Q45 75 75 67 Q105 60 135 75 Q150 82 157 105 Q165 127 150 135 Q120 142 90 135 Q60 127 30 105 Z" fill="white" stroke="white" stroke-width="3" stroke-linejoin="round"/>
  <!-- Shark fin -->
  <path d="M90 67 L105 30 L120 67" fill="white" stroke="white" stroke-width="3" stroke-linejoin="round"/>
  <!-- Shark eye -->
  <circle cx="135" cy="97" r="6" fill="#863bff"/>
  <!-- Squiggle wave -->
  <path d="M15 157 Q30 142 45 157 Q60 172 75 157 Q90 142 105 157 Q120 172 135 157 Q150 142 165 157" stroke="white" stroke-width="4" fill="none" opacity="0.8"/>
</svg>